{
  "accessors": [
    {
      "bufferView": 2,
      "componentType": 5126,
      "count": 1999,
      "max": [
        0.3156721293926239,
        0.45559656620025635,
        0.6642577052116394
      ],
      "min": [
        -0.29227229952812195,
        -0.45547729730606079,
        -0.00019508600234985352
      ],
      "type": "VEC3"
    },
    {
      "bufferView": 2,
      "byteOffset": 23988,
      "componentType": 5126,
      "count": 1999,
      "max": [
        1,
        1,
        1
      ],
      "min": [
        -1,
        -1,
        -1
      ],
      "type": "VEC3"
    },
    {
      "bufferView": 3,
      "componentType": 5126,
      "count": 1999,
      "max": [
        1,
        1,
        1,
        1
      ],
      "min": [
        -1,
        -1,
        -1,
        1
      ],
      "type": "VEC4"
    },
    {
      "bufferView": 1,
      "componentType": 5126,
      "count": 1999,
      "max": [
        0.99007654190063477,
        0.9994049072265625
      ],
      "min": [
        0.00059501995565369725,
        0.00059501995565369725
      ],
      "type": "VEC2"
    },
    {
      "bufferView": 0,
      "componentType": 5125,
      "count": 6441,
      "max": [
        1998
      ],
      "min": [
        0
      ],
      "type": "SCALAR"
    },
    {
      "bufferView": 2,
      "byteOffset": 47976,
      "componentType": 5126,
      "count": 142,
      "max": [
        0.31075897812843323,
        0.042166233062744141,
        0.26674348115921021
      ],
      "min": [
        0.2866269052028656,
        -0.041675582528114319,
        0.13438557088375092
      ],
      "type": "VEC3"
    },
    {
      "bufferView": 2,
      "byteOffset": 49680,
      "componentType": 5126,
      "count": 142,
      "max": [
        0.99920326471328735,
        1,
        0.9992031455039978
      ],
      "min": [
        -0.99970918893814087,
        -1,
        -0.9868195652961731
      ],
      "type": "VEC3"
    },
    {
      "bufferView": 3,
      "byteOffset": 31984,
      "componentType": 5126,
      "count": 142,
      "max": [
        0.99920320510864258,
        1,
        0.99920320510864258,
        1
      ],
      "min": [
        -0.17521975934505463,
        -1,
        -0.99930799007415771,
        1
      ],
      "type": "VEC4"
    },
    {
      "bufferView": 1,
      "byteOffset": 15992,
      "componentType": 5126,
      "count": 142,
      "max": [
        0.92368614673614502,
        0.81875830888748169
      ],
      "min": [
        0.21743150055408478,
        0.30547228455543518
      ],
      "type": "VEC2"
    },
    {
      "bufferView": 0,
      "byteOffset": 25764,
      "componentType": 5125,
      "count": 468,
      "max": [
        141
      ],
      "min": [
        0
      ],
      "type": "SCALAR"
    },
    {
      "bufferView": 2,
      "byteOffset": 51384,
      "componentType": 5126,
      "count": 132,
      "max": [
        0.25519499182701111,
        0.41130495071411133,
        0.63888704776763916
      ],
      "min": [
        -0.25907465815544128,
        -0.41053104400634766,
        0.039733409881591797
      ],
      "type": "VEC3"
    },
    {
      "bufferView": 2,
      "byteOffset": 52968,
      "componentType": 5126,
      "count": 132,
      "max": [
        1,
        1,
        0.99064832925796509
      ],
      "min": [
        -1,
        -1,
        -1.4556153473677114e-06
      ],
      "type": "VEC3"
    },
    {
      "bufferView": 3,
      "byteOffset": 34256,
      "componentType": 5126,
      "count": 132,
      "max": [
        1,
        1,
        1,
        1
      ],
      "min": [
        -1.6448633743948449e-07,
        -1.0863229363167193e-05,
        -1,
        1
      ],
      "type": "VEC4"
    },
    {
      "bufferView": 1,
      "byteOffset": 17128,
      "componentType": 5126,
      "count": 132,
      "max": [
        0.98742371797561646,
        0.9550510048866272
      ],
      "min": [
        0.00059501995565369725,
        0.00059501995565369725
      ],
      "type": "VEC2"
    },
    {
      "bufferView": 0,
      "byteOffset": 27636,
      "componentType": 5125,
      "count": 312,
      "max": [
        131
      ],
      "min": [
        0
      ],
      "type": "SCALAR"
    }
  ],
  "asset": {
    "extras": {
      "author": "JSlyin (https://sketchfab.com/popovich.stanislav.01)",
      "license": "CC-BY-4.0 (http://creativecommons.org/licenses/by/4.0/)",
      "source": "https://sketchfab.com/3d-models/treasure-chest-8bdf3dee4f344e36839c4c1c7e1dcd2b",
      "title": "Treasure chest"
    },
    "generator": "Sketchfab-4.45.0",
    "version": "2.0"
  },
  "bufferViews": [
    {
      "buffer": 0,
      "byteLength": 28884,
      "byteOffset": 0,
      "name": "floatBufferViews",
      "target": 34963
    },
    {
      "buffer": 0,
      "byteLength": 18184,
      "byteOffset": 28884,
      "byteStride": 8,
      "name": "floatBufferViews",
      "target": 34962
    },
    {
      "buffer": 0,
      "byteLength": 54552,
      "byteOffset": 47068,
      "byteStride": 12,
      "name": "floatBufferViews",
      "target": 34962
    },
    {
      "buffer": 0,
      "byteLength": 36368,
      "byteOffset": 101620,
      "byteStride": 16,
      "name": "floatBufferViews",
      "target": 34962
    }
  ],
  "buffers": [
    {
      "byteLength": 137988,
      "uri": "scene.bin"
    }
  ],
  "images": [
    {
      "uri": "textures/Zamok_metallicRoughness.png"
    },
    {
      "uri": "textures/Zamok_normal.png"
    },
    {
      "uri": "textures/Zamok_baseColor.png"
    },
    {
      "uri": "textures/Box_met_metallicRoughness.png"
    },
    {
      "uri": "textures/Box_met_normal.png"
    },
    {
      "uri": "textures/Box_met_baseColor.png"
    },
    {
      "uri": "textures/Wood_metallicRoughness.png"
    },
    {
      "uri": "textures/Wood_normal.png"
    },
    {
      "uri": "textures/Wood_baseColor.png"
    }
  ],
  "materials": [
    {
      "doubleSided": true,
      "emissiveFactor": [
        0,
        0,
        0
      ],
      "name": "Box_met",
      "normalTexture": {
        "index": 4,
        "scale": 1,
        "texCoord": 0
      },
      "occlusionTexture": {
        "index": 3,
        "strength": 1,
        "texCoord": 0
      },
      "pbrMetallicRoughness": {
        "baseColorFactor": [
          1,
          1,
          1,
          1
        ],
        "baseColorTexture": {
          "index": 5,
          "texCoord": 0
        },
        "metallicFactor": 1,
        "metallicRoughnessTexture": {
          "index": 3,
          "texCoord": 0
        },
        "roughnessFactor": 1
      }
    },
    {
      "doubleSided": true,
      "emissiveFactor": [
        0,
        0,
        0
      ],
      "name": "Zamok",
      "normalTexture": {
        "index": 1,
        "scale": 1,
        "texCoord": 0
      },
      "occlusionTexture": {
        "index": 0,
        "strength": 1,
        "texCoord": 0
      },
      "pbrMetallicRoughness": {
        "baseColorFactor": [
          1,
          1,
          1,
          1
        ],
        "baseColorTexture": {
          "index": 2,
          "texCoord": 0
        },
        "metallicFactor": 1,
        "metallicRoughnessTexture": {
          "index": 0,
          "texCoord": 0
        },
        "roughnessFactor": 1
      }
    },
    {
      "doubleSided": true,
      "emissiveFactor": [
        0,
        0,
        0
      ],
      "name": "Wood",
      "normalTexture": {
        "index": 7,
        "scale": 1,
        "texCoord": 0
      },
      "occlusionTexture": {
        "index": 6,
        "strength": 1,
        "texCoord": 0
      },
      "pbrMetallicRoughness": {
        "baseColorFactor": [
          1,
          1,
          1,
          1
        ],
        "baseColorTexture": {
          "index": 8,
          "texCoord": 0
        },
        "metallicFactor": 1,
        "metallicRoughnessTexture": {
          "index": 6,
          "texCoord": 0
        },
        "roughnessFactor": 0.81998106059999998
      }
    }
  ],
  "meshes": [
    {
      "name": "Dower chest_Box met_0",
      "primitives": [
        {
          "attributes": {
            "NORMAL": 1,
            "POSITION": 0,
            "TANGENT": 2,
            "TEXCOORD_0": 3
          },
          "indices": 4,
          "material": 0,
          "mode": 4
        }
      ]
    },
    {
      "name": "Dower chest_Zamok_0",
      "primitives": [
        {
          "attributes": {
            "NORMAL": 6,
            "POSITION": 5,
            "TANGENT": 7,
            "TEXCOORD_0": 8
          },
          "indices": 9,
          "material": 1,
          "mode": 4
        }
      ]
    },
    {
      "name": "Dower chest_Wood_0",
      "primitives": [
        {
          "attributes": {
            "NORMAL": 11,
            "POSITION": 10,
            "TANGENT": 12,
            "TEXCOORD_0": 13
          },
          "indices": 14,
          "material": 2,
          "mode": 4
        }
      ]
    }
  ],
  "nodes": [
    {
      "children": [
        1
      ],
      "name": "RootNode (gltf orientation matrix)",
      "rotation": [
        -0.70710678118654746,
        -0,
        -0,
        0.70710678118654757
      ]
    },
    {
      "children": [
        2
      ],
      "name": "RootNode (model correction matrix)"
    },
    {
      "children": [
        3
      ],
      "matrix": [
        1,
        0,
        0,
        0,
        0,
        0,
        1,
        0,
        0,
        -1,
        0,
        0,
        0,
        0,
        0,
        1
      ],
      "name": "70aacc404a4b4da784a959dff0909bf0.fbx"
    },
    {
      "children": [
        4
      ],
      "name": "RootNode"
    },
    {
      "children": [
        5,
        6,
        7
      ],
      "matrix": [
        100,
        0,
        0,
        0,
        0,
        -1.6292067939183141e-05,
        -99.999999999998678,
        0,
        0,
        99.999999999998678,
        -1.6292067939183141e-05,
        0,
        0,
        0,
        0,
        1
      ],
      "name": "Dower chest"
    },
    {
      "mesh": 0,
      "name": "Dower chest_Box met_0"
    },
    {
      "mesh": 1,
      "name": "Dower chest_Zamok_0"
    },
    {
      "mesh": 2,
      "name": "Dower chest_Wood_0"
    }
  ],
  "samplers": [
    {
      "magFilter": 9729,
      "minFilter": 9987,
      "wrapS": 10497,
      "wrapT": 10497
    }
  ],
  "scene": 0,
  "scenes": [
    {
      "name": "OSG_Scene",
      "nodes": [
        0
      ]
    }
  ],
  "textures": [
    {
      "sampler": 0,
      "source": 0
    },
    {
      "sampler": 0,
      "source": 1
    },
    {
      "sampler": 0,
      "source": 2
    },
    {
      "sampler": 0,
      "source": 3
    },
    {
      "sampler": 0,
      "source": 4
    },
    {
      "sampler": 0,
      "source": 5
    },
    {
      "sampler": 0,
      "source": 6
    },
    {
      "sampler": 0,
      "source": 7
    },
    {
      "sampler": 0,
      "source": 8
    }
  ]
}

